<svg xmlns="http://www.w3.org/2000/svg" xmlns:xlink="http://www.w3.org/1999/xlink" viewBox="0 0 2146.85 533.09"><defs><style>.cls-1{fill:none;}.cls-2{clip-path:url(#clip-path);}.cls-3{opacity:0.46;}.cls-4{fill:#d09d65;}</style><clipPath id="clip-path" transform="translate(0 -472.63)"><rect class="cls-1" x="117.28" width="1920" height="1596.68"/></clipPath></defs><title>bg-ilustration</title><g id="Layer_2" data-name="Layer 2"><g id="Layer_1-2" data-name="Layer 1"><g class="cls-2"><g class="cls-3"><g id="_Group_" data-name="&lt;Group&gt;"><path class="cls-4" d="M646.84,800.51c7.43,0,7.44-11.56,0-11.56S639.39,800.51,646.84,800.51Z" transform="translate(0 -472.63)"/></g><g id="_Group_2" data-name="&lt;Group&gt;"><path class="cls-4" d="M472.36,781c6.56-15,4.32-32.32-2.79-46.72a5.41,5.41,0,0,0-.48-.78,61.29,61.29,0,0,0-6.7-12.25A91.29,91.29,0,0,1,473.34,724c6.78,2.14,9.68-8.49,2.93-10.63a100.3,100.3,0,0,0-37.44-4.49c-29.65.77-58.19,12.14-85.41,23.44-6.46,2.68-3.63,13.35,2.93,10.63q5.43-2.27,10.92-4.5c-9.89,24.15,1.94,52.89,25.55,65.22C418.6,817.12,459.85,809.66,472.36,781Z" transform="translate(0 -472.63)"/></g><g id="_Group_3" data-name="&lt;Group&gt;"><path class="cls-4" d="M481.25,877.42a22.2,22.2,0,0,0,21.2-4.54A22.32,22.32,0,0,0,523,877.64c11.24-3.26,16.27-15,17-25.8,1.87-26.71-17.94-49.7-33.62-69a5.17,5.17,0,0,0-7.93,0c-15.68,19.34-35.48,42.33-33.62,69C465.6,862.41,470.39,873.85,481.25,877.42Z" transform="translate(0 -472.63)"/></g><g id="_Group_4" data-name="&lt;Group&gt;"><path class="cls-4" d="M408.25,820.56c-8.69-.34-16.49-.77-24.73-3.86-6.64-2.5-9.51,8.14-2.92,10.62a64.25,64.25,0,0,0,18.63,4c6.3.4,13.25-.62,19.1,2.26,11.5,5.66,13.23,20.83,14.35,32,.7,7,11.72,7.06,11,0-1.42-14.24-3.81-29.7-15.91-39C422.06,822.23,415.34,820.84,408.25,820.56Z" transform="translate(0 -472.63)"/></g><g id="_Group_5" data-name="&lt;Group&gt;"><path class="cls-4" d="M365.47,817.21c7.09,0,7.1-11,0-11S358.37,817.21,365.47,817.21Z" transform="translate(0 -472.63)"/></g><g id="_Group_6" data-name="&lt;Group&gt;"><path class="cls-4" d="M624.53,816.7c-7.89,3-15.39,3.55-23.73,3.82-7.44.25-14.5,1.47-20.54,6.12-12.1,9.31-14.49,24.77-15.91,39-.7,7.05,10.32,7,11,0,1.12-11.22,2.85-26.39,14.35-32,5.85-2.88,12.8-1.85,19.1-2.26a64.79,64.79,0,0,0,18.64-4C634,824.85,631.18,814.19,624.53,816.7Z" transform="translate(0 -472.63)"/></g><g id="_Group_7" data-name="&lt;Group&gt;"><path class="cls-4" d="M365.72,660.6c-4.21-5.61-13.78-.12-9.52,5.56a40.75,40.75,0,0,1,8.23,29,4.26,4.26,0,0,0,0,.62c-1.22,2.48-2.49,4.93-3.91,7.32-3.62,6.11,5.9,11.66,9.52,5.56,19.92-33.61,21.41-75.81,4.39-110.89-3.09-6.38-12.6-.8-9.51,5.56a105.94,105.94,0,0,1,7.58,69.73A49.58,49.58,0,0,0,365.72,660.6Z" transform="translate(0 -472.63)"/></g><g id="_Group_8" data-name="&lt;Group&gt;"><path class="cls-4" d="M644,603.34c3.09-6.35-6.41-12-9.51-5.56-17,35.08-15.52,77.28,4.4,110.89,3.61,6.09,13.14.56,9.51-5.56-1.41-2.39-2.69-4.84-3.9-7.32,0-.21,0-.4,0-.62a40.8,40.8,0,0,1,8.23-29c4.26-5.68-5.31-11.18-9.51-5.56a49.62,49.62,0,0,0-6.8,12.47A106,106,0,0,1,644,603.34Z" transform="translate(0 -472.63)"/></g><g id="_Group_9" data-name="&lt;Group&gt;"><path class="cls-4" d="M483.05,936.42c-1.73,7.68-5.3,16.52-14.89,11.53-5.75-3-8.37-9.32-8.62-15.51,0-.43,0-.85,0-1.28s0-.65,0-1h-.08c0-.5,0-1-.12-1.48-1-6.4-10.51-4.42-10.82,1.47a31.33,31.33,0,0,0,.07,4.11c-1.36,4.68-9.22,4.39-12.8,2-4.87-3.2-7-9.2-8.11-14.64-1.4-6.75-1.44-13.76-2.31-20.6A193.08,193.08,0,0,0,421.71,881c-1.63-6.89-12.25-4-10.62,2.93,2.67,11.29,3.56,22.55,4.93,34,1.05,8.82,3.38,17.84,9.82,24.35,5.86,5.94,15,8.91,23,5.72a17.34,17.34,0,0,0,3.19-1.71,26,26,0,0,0,14.73,12.95c6.12,2.05,13.17,1.3,18.26-2.83s7.24-10.79,8.66-17.09C495.23,932.44,484.61,929.49,483.05,936.42Z" transform="translate(0 -472.63)"/></g><g id="_Group_10" data-name="&lt;Group&gt;"><path class="cls-4" d="M583.32,881a195.75,195.75,0,0,0-3.66,20.11c-.87,6.84-.9,13.85-2.31,20.6-1.12,5.44-3.24,11.44-8.11,14.64-3.54,2.33-11.44,2.68-12.8-2a29.83,29.83,0,0,0,.07-4.12c-.3-5.83-9.79-7.93-10.82-1.47-.08.5-.08,1-.12,1.48h-.07c0,.31,0,.64,0,1s0,.86,0,1.29c-.25,6.18-2.86,12.5-8.62,15.5-9.48,4.93-13.16-3.85-14.89-11.53-1.55-6.92-12.18-4-10.62,2.93,1.36,6.07,3.29,12.38,8.1,16.66,5.08,4.53,12.5,5.37,18.81,3.26A26,26,0,0,0,553,946.32a17.43,17.43,0,0,0,3.2,1.71c8,3.19,17.13.22,23-5.72C585.63,935.8,588,926.78,589,918c1.37-11.48,2.25-22.74,4.93-34C595.58,877,585,874.09,583.32,881Z" transform="translate(0 -472.63)"/></g><g id="_Group_11" data-name="&lt;Group&gt;"><path class="cls-4" d="M343.18,637.86c1.44-16.68,2.23-34.45,7-50.58,4.12-13.91,13.36-25.4,23.81-35.17,11.11-10.39,23.64-19.28,36.06-28,12.92-9.1,26.25-17.72,40.39-24.82,16.09-8.07,33.38-13.94,51.37-15.6a6,6,0,0,0,1.66-.42,6.12,6.12,0,0,0,1.66.42c31.84,2.94,60.39,18.87,86.3,36.62,23.22,15.92,52,34,63.25,61.05,3.5,8.44,4.76,17.6,5.92,26.59,1.28,10,2.32,19.94,3.18,29.93.61,7,11.63,7.08,11,0-1.54-17.87-2.32-37.21-7.7-54.43-4.6-14.76-14-27.35-25.11-37.93-11.62-11.11-24.89-20.55-38-29.83-14.18-10-28.82-19.57-44.48-27.16-17.21-8.35-35.31-14.09-54.4-15.86a12.58,12.58,0,0,1-3.32,0c-34.57,3.2-65.31,19.77-93.43,39.21-25.12,17.37-54.44,36.5-66.48,65.89-3.55,8.67-4.95,17.86-6.17,27.1q-2.19,16.46-3.59,33C331.55,644.93,342.57,644.89,343.18,637.86Z" transform="translate(0 -472.63)"/></g><g id="_Group_12" data-name="&lt;Group&gt;"><path class="cls-4" d="M407.07,856.52c-10-4.55-20.49-5.19-31.09-7.29-11.83-2.34-19.65-7.85-25.27-18.61-8.78-16.79-21.82-48.66-.48-61.75,3.26-2,3.37-5.9,1.12-8.65-4-4.9-8.1-10.12-10.43-16.07-2.7-6.91-1.34-13.09.19-20.09a88.83,88.83,0,0,0-.66-40.73c-1.71-6.87-12.34-4-10.62,2.93a77.84,77.84,0,0,1,2.29,23.1c-.41,7.8-3,15.12-3.76,22.84-1.23,11.73,4.47,21.83,11.29,30.85-19.25,16.72-10.5,46.24-1.43,66.86,5.27,12,12.56,22.42,25.19,27.27,12.26,4.7,26.1,3.38,38.1,8.86C407.91,869,413.52,859.46,407.07,856.52Z" transform="translate(0 -472.63)"/></g><g id="_Group_13" data-name="&lt;Group&gt;"><path class="cls-4" d="M666.75,763.05c6.82-9,12.51-19.11,11.29-30.85-.77-7.37-3.21-14.38-3.7-21.81a77.56,77.56,0,0,1,2.23-24.13c1.71-6.88-8.91-9.81-10.63-2.93a89.11,89.11,0,0,0-.66,40.73c1.46,6.68,2.87,12.59.49,19.25-2.25,6.3-6.54,11.78-10.72,16.91-2.25,2.75-2.15,6.65,1.11,8.65,21.34,13.08,8.31,45-.47,61.75-5.44,10.41-13,16.07-24.45,18.44-10.85,2.24-21.68,2.8-31.92,7.46-6.44,2.94-.85,12.44,5.57,9.52,12-5.48,25.84-4.12,38.09-8.86,12.64-4.88,19.9-15.26,25.2-27.27C677.26,809.29,686,779.77,666.75,763.05Z" transform="translate(0 -472.63)"/></g><g id="_Group_14" data-name="&lt;Group&gt;"><path class="cls-4" d="M650.74,732.31c-27-11.24-55.41-22.53-84.86-23.43a100.28,100.28,0,0,0-37.6,4.48c-6.74,2.14-3.86,12.78,2.93,10.63a91.9,91.9,0,0,1,10.51-2.66,60.74,60.74,0,0,0-6.65,12.17,5.41,5.41,0,0,0-.48.78c-6.22,12.59-8.77,27.34-4.86,41.05,4.18,14.69,15.65,24.41,29.42,30,28.41,11.65,64.27,1.38,77.09-28a50.67,50.67,0,0,0,.57-39c3.69,1.49,7.36,3,11,4.53C654.35,745.65,657.21,735,650.74,732.31Z" transform="translate(0 -472.63)"/></g><g id="_Group_15" data-name="&lt;Group&gt;"><path class="cls-4" d="M438.47,685.71A131,131,0,0,1,399.13,679c-6.75-2.23-9.64,8.41-2.93,10.63a141.56,141.56,0,0,0,42.27,7.12C445.57,696.85,445.57,685.83,438.47,685.71Z" transform="translate(0 -472.63)"/></g><g id="_Group_16" data-name="&lt;Group&gt;"><path class="cls-4" d="M563.49,696.73a141.68,141.68,0,0,0,42.28-7.12c6.69-2.22,3.82-12.86-2.93-10.63a131.06,131.06,0,0,1-39.35,6.73C556.4,685.83,556.38,696.85,563.49,696.73Z" transform="translate(0 -472.63)"/></g><g id="_Group_17" data-name="&lt;Group&gt;"><path class="cls-4" d="M311.89,992.35c32.37,14.53,75-5.29,76.38-43.24,1.64-44.28-43.14-65.6-80.76-51-26,10.08-46.95,30.87-69.48,46.78-24.67,17.41-51,33.37-79.93,42.62C106.4,1004,42,996.12,10.34,947.37c-3.82-5.88-13.28-.4-9.44,5.52,44.71,68.79,136.53,61.77,200.72,27.67,20-10.65,38.8-23.63,56.95-37.22,21.54-16.13,44.32-38.16,72.74-39.66,25.42-1.34,47.25,19.62,46,45.43-1.36,29-35,45-60,33.81-6.36-2.86-11.92,6.56-5.51,9.43Z" transform="translate(0 -472.63)"/></g><g id="_Group_18" data-name="&lt;Group&gt;"><path class="cls-4" d="M285.58,909.42c-27.26,16.31-56.93,33.41-89.75,32.68-37.09-.83-57.88-23.94-70.65-56.59-2.53-6.48-13.1-3.66-10.54,2.9,12.72,32.52,32.08,58.22,68.63,63.57,39.23,5.74,75.3-13.66,107.82-33.12,6-3.61.54-13.06-5.51-9.44Z" transform="translate(0 -472.63)"/></g><g id="_Group_19" data-name="&lt;Group&gt;"><path class="cls-4" d="M296,902.52c-14.75,9.71-49.5,10.31-57.11-9.95-2.45-6.52-13-3.7-10.54,2.91,10.13,27,51.68,30.63,73.16,16.47,5.85-3.85.38-13.32-5.51-9.43Z" transform="translate(0 -472.63)"/></g><g id="_Group_20" data-name="&lt;Group&gt;"><path class="cls-4" d="M679.38,982.92c-23.87,10.71-55.29-3-59.39-30-4.14-27.23,18.7-50.4,45.49-49.24,27.31,1.19,49.65,22.23,70.27,37.8,18.92,14.29,38.46,27.91,59.42,39.08,64.12,34.2,156.05,41.05,200.71-27.67,3.85-5.92-5.61-11.4-9.43-5.52-31.65,48.69-96.09,56.74-147.77,40.12-28.92-9.3-55.25-25.19-79.93-42.62-22.52-15.91-43.42-36.78-69.48-46.78-37.77-14.5-82.22,6.66-80.76,51,1.25,38,44.13,57.72,76.39,43.24,6.4-2.87.85-12.29-5.52-9.43Z" transform="translate(0 -472.63)"/></g><g id="_Group_21" data-name="&lt;Group&gt;"><path class="cls-4" d="M705.69,918.86c32.54,19.46,68.58,38.86,107.83,33.12,36.54-5.34,55.91-31.06,68.62-63.57,2.56-6.55-8-9.39-10.54-2.9C858.88,918.06,838,941.27,801,942.1c-32.8.73-62.52-16.39-89.75-32.68-6.05-3.62-11.55,5.82-5.52,9.44Z" transform="translate(0 -472.63)"/></g><g id="_Group_22" data-name="&lt;Group&gt;"><path class="cls-4" d="M695.31,912c21.5,14.17,63,10.48,73.16-16.47,2.48-6.6-8.08-9.44-10.53-2.91-7.63,20.3-42.32,19.7-57.11,9.95-5.89-3.89-11.37,5.57-5.52,9.43Z" transform="translate(0 -472.63)"/></g><g id="_Group_23" data-name="&lt;Group&gt;"><path class="cls-4" d="M316.6,857.36c-25-2.58-40.85-23.41-48.5-45.69-2.27-6.61-12.83-3.77-10.53,2.91,9.4,27.41,28.76,50.58,59,53.71,7,.73,6.93-10.21,0-10.93Z" transform="translate(0 -472.63)"/></g><g id="_Group_24" data-name="&lt;Group&gt;"><path class="cls-4" d="M285.65,845.08c-9.08-2-19.59-3.88-27.19-9.51-12.62-9.34-11.79-24.42-11.08-38.33,1-19.78,2.36-39-1.4-58.56l-10,4.21c7.61,16.05,22.72,22.53,35.2,34.06,19.09,17.66,19.8,44.18,13.49,67.77-1.82,6.8,8.72,9.7,10.54,2.9,5.35-20,6.5-42.18-3.11-61.15-10.77-21.25-36.68-28-46.68-49.09-2.81-5.92-11.08-1.51-10,4.21,3.16,16.45,2.33,32.67,1.39,49.27-.65,11.45-2.43,24.42,1.49,35.57,6.74,19.19,26.33,25.21,44.42,29.18,6.85,1.51,9.78-9,2.91-10.53Z" transform="translate(0 -472.63)"/></g><g id="_Group_25" data-name="&lt;Group&gt;"><path class="cls-4" d="M81.27,925.33a117.21,117.21,0,0,1-29-34c-3.47-6.12-12.91-.62-9.44,5.52a125,125,0,0,0,30.69,36.19c5.43,4.36,13.21-3.32,7.72-7.72Z" transform="translate(0 -472.63)"/></g><g id="_Group_26" data-name="&lt;Group&gt;"><path class="cls-4" d="M685,868.29c30.25-3.13,49.62-26.3,59-53.71,2.29-6.67-8.27-9.53-10.54-2.91C725.87,834,710,854.78,685,857.36c-6.93.72-7,11.66,0,10.93Z" transform="translate(0 -472.63)"/></g><g id="_Group_27" data-name="&lt;Group&gt;"><path class="cls-4" d="M718.88,855.61c17.91-3.93,37.9-10,44.42-29.18,3.84-11.28,2.14-24,1.49-35.57-.92-16.63-1.77-32.8,1.39-49.27,1.09-5.66-7.15-10.18-10-4.21-10,21.12-36,27.77-46.68,49.09-9.55,19-8.47,41.12-3.1,61.15,1.81,6.79,12.36,3.91,10.53-2.9-6.34-23.69-5.46-50,13.49-67.77,12.45-11.68,27.55-17.91,35.2-34.06l-10-4.21c-3.75,19.58-2.4,38.8-1.39,58.56.62,12.22,1.3,24.38-7.09,34.09-7.72,8.95-20.11,11.32-31.18,13.75-6.87,1.5-4,12,2.9,10.53Z" transform="translate(0 -472.63)"/></g><g id="_Group_28" data-name="&lt;Group&gt;"><path class="cls-4" d="M333.51,973.14a5.47,5.47,0,1,1,0-10.93,17.11,17.11,0,1,0,0-34.21,5.47,5.47,0,1,1,0-10.93,28,28,0,0,1,0,56.07Z" transform="translate(0 -472.63)"/></g><g id="_Group_29" data-name="&lt;Group&gt;"><path class="cls-4" d="M660.7,972.23a25.76,25.76,0,0,1,0-51.52,5.47,5.47,0,0,1,0,10.93,14.83,14.83,0,0,0,0,29.66,5.47,5.47,0,0,1,0,10.93Z" transform="translate(0 -472.63)"/></g></g><g class="cls-3"><g id="_Group_30" data-name="&lt;Group&gt;"><path class="cls-4" d="M1796.9,800.51c7.44,0,7.45-11.56,0-11.56S1789.45,800.51,1796.9,800.51Z" transform="translate(0 -472.63)"/></g><g id="_Group_31" data-name="&lt;Group&gt;"><path class="cls-4" d="M1622.43,781c6.56-15,4.32-32.32-2.79-46.72a5.41,5.41,0,0,0-.48-.78,61.29,61.29,0,0,0-6.7-12.25,91.29,91.29,0,0,1,11,2.74c6.78,2.14,9.68-8.49,2.93-10.63a100.3,100.3,0,0,0-37.44-4.49c-29.65.77-58.19,12.14-85.41,23.44-6.46,2.68-3.63,13.35,2.93,10.63q5.43-2.27,10.92-4.5c-9.89,24.15,1.94,52.89,25.55,65.22C1568.66,817.12,1609.92,809.66,1622.43,781Z" transform="translate(0 -472.63)"/></g><g id="_Group_32" data-name="&lt;Group&gt;"><path class="cls-4" d="M1631.32,877.42a22.2,22.2,0,0,0,21.2-4.54,22.31,22.31,0,0,0,20.56,4.76c11.24-3.26,16.27-15,17-25.8,1.87-26.71-17.94-49.7-33.62-69a5.17,5.17,0,0,0-7.93,0c-15.68,19.34-35.48,42.33-33.62,69C1615.67,862.41,1620.46,873.85,1631.32,877.42Z" transform="translate(0 -472.63)"/></g><g id="_Group_33" data-name="&lt;Group&gt;"><path class="cls-4" d="M1558.32,820.56c-8.69-.34-16.49-.77-24.73-3.86-6.64-2.5-9.51,8.14-2.93,10.62a64.39,64.39,0,0,0,18.64,4c6.3.4,13.25-.62,19.1,2.26,11.5,5.66,13.23,20.83,14.35,32,.69,7,11.72,7.06,11,0-1.42-14.24-3.81-29.7-15.91-39C1572.13,822.23,1565.41,820.84,1558.32,820.56Z" transform="translate(0 -472.63)"/></g><g id="_Group_34" data-name="&lt;Group&gt;"><path class="cls-4" d="M1515.54,817.21c7.09,0,7.1-11,0-11S1508.44,817.21,1515.54,817.21Z" transform="translate(0 -472.63)"/></g><g id="_Group_35" data-name="&lt;Group&gt;"><path class="cls-4" d="M1774.59,816.7c-7.88,3-15.39,3.55-23.72,3.82-7.44.25-14.51,1.47-20.54,6.12-12.1,9.31-14.49,24.77-15.91,39-.7,7.05,10.32,7,11,0,1.11-11.22,2.85-26.39,14.35-32,5.85-2.88,12.79-1.85,19.1-2.26a64.66,64.66,0,0,0,18.63-4C1784.1,824.85,1781.25,814.19,1774.59,816.7Z" transform="translate(0 -472.63)"/></g><g id="_Group_36" data-name="&lt;Group&gt;"><path class="cls-4" d="M1515.79,660.6c-4.21-5.61-13.78-.12-9.52,5.56a40.8,40.8,0,0,1,8.23,29c0,.22,0,.41,0,.62-1.21,2.48-2.48,4.93-3.9,7.32-3.62,6.11,5.9,11.66,9.52,5.56,19.92-33.61,21.41-75.81,4.39-110.89-3.09-6.38-12.6-.8-9.51,5.56a105.94,105.94,0,0,1,7.58,69.73A49.58,49.58,0,0,0,1515.79,660.6Z" transform="translate(0 -472.63)"/></g><g id="_Group_37" data-name="&lt;Group&gt;"><path class="cls-4" d="M1794.1,603.34c3.09-6.35-6.41-12-9.51-5.56-17,35.08-15.53,77.28,4.39,110.89,3.62,6.09,13.15.56,9.52-5.56-1.42-2.39-2.69-4.84-3.9-7.32,0-.21,0-.4,0-.62a40.8,40.8,0,0,1,8.23-29c4.25-5.68-5.31-11.18-9.51-5.56a49.3,49.3,0,0,0-6.8,12.47A105.94,105.94,0,0,1,1794.1,603.34Z" transform="translate(0 -472.63)"/></g><g id="_Group_38" data-name="&lt;Group&gt;"><path class="cls-4" d="M1633.12,936.42c-1.73,7.68-5.31,16.52-14.89,11.53-5.76-3-8.37-9.32-8.62-15.51,0-.43,0-.85,0-1.28s0-.65,0-1h-.08c0-.5,0-1-.12-1.48-1-6.4-10.52-4.42-10.82,1.47a31.33,31.33,0,0,0,.07,4.11c-1.36,4.68-9.22,4.39-12.8,2-4.87-3.2-7-9.2-8.11-14.64-1.4-6.75-1.45-13.76-2.31-20.6a193.08,193.08,0,0,0-3.66-20.11c-1.63-6.89-12.26-4-10.62,2.93,2.67,11.29,3.55,22.55,4.92,34,1.06,8.82,3.39,17.84,9.83,24.35,5.86,5.94,15,8.91,23,5.72a17.67,17.67,0,0,0,3.19-1.71,26,26,0,0,0,14.73,12.95c6.12,2.05,13.17,1.3,18.25-2.83s7.25-10.79,8.67-17.09C1645.3,932.44,1634.68,929.49,1633.12,936.42Z" transform="translate(0 -472.63)"/></g><g id="_Group_39" data-name="&lt;Group&gt;"><path class="cls-4" d="M1733.39,881a195.75,195.75,0,0,0-3.66,20.11c-.87,6.84-.9,13.85-2.31,20.6-1.13,5.44-3.24,11.44-8.11,14.64-3.55,2.33-11.44,2.68-12.8-2a31.48,31.48,0,0,0,.07-4.12c-.3-5.83-9.79-7.93-10.82-1.47-.08.5-.08,1-.12,1.48h-.08c0,.31,0,.64,0,1s0,.86,0,1.29c-.25,6.18-2.86,12.5-8.62,15.5-9.48,4.93-13.16-3.85-14.89-11.53-1.56-6.92-12.18-4-10.62,2.93,1.36,6.07,3.29,12.38,8.1,16.66,5.08,4.53,12.5,5.37,18.81,3.26a26,26,0,0,0,14.73-12.95,17.43,17.43,0,0,0,3.2,1.71c8,3.19,17.13.22,23-5.72,6.43-6.51,8.76-15.53,9.82-24.35,1.37-11.48,2.25-22.74,4.92-34C1745.64,877,1735,874.09,1733.39,881Z" transform="translate(0 -472.63)"/></g><g id="_Group_40" data-name="&lt;Group&gt;"><path class="cls-4" d="M1493.25,637.86c1.43-16.68,2.23-34.45,7-50.58,4.13-13.91,13.37-25.4,23.82-35.17,11.11-10.39,23.64-19.28,36.06-28,12.92-9.1,26.25-17.72,40.39-24.82,16.09-8.07,33.38-13.94,51.37-15.6a6.12,6.12,0,0,0,1.66-.42,5.94,5.94,0,0,0,1.66.42c31.83,2.94,60.39,18.87,86.3,36.62,23.22,15.92,52,34,63.25,61.05,3.5,8.44,4.76,17.6,5.92,26.59,1.28,10,2.32,19.94,3.18,29.93.61,7,11.63,7.08,11,0-1.54-17.87-2.32-37.21-7.7-54.43-4.61-14.76-14-27.35-25.11-37.93-11.62-11.11-24.89-20.55-38-29.83-14.18-10-28.82-19.57-44.48-27.16-17.21-8.35-35.31-14.09-54.4-15.86a12.58,12.58,0,0,1-3.32,0c-34.57,3.2-65.31,19.77-93.43,39.21-25.13,17.37-54.44,36.5-66.48,65.89-3.56,8.67-5,17.86-6.18,27.1q-2.18,16.46-3.58,33C1481.62,644.93,1492.64,644.89,1493.25,637.86Z" transform="translate(0 -472.63)"/></g><g id="_Group_41" data-name="&lt;Group&gt;"><path class="cls-4" d="M1557.14,856.52c-10-4.55-20.49-5.19-31.1-7.29-11.82-2.34-19.64-7.85-25.27-18.61-8.77-16.79-21.81-48.66-.47-61.75,3.26-2,3.36-5.9,1.12-8.65-4-4.9-8.11-10.12-10.43-16.07-2.7-6.91-1.34-13.09.19-20.09a89,89,0,0,0-.66-40.73c-1.71-6.87-12.34-4-10.63,2.93a77.52,77.52,0,0,1,2.3,23.1c-.41,7.8-3,15.12-3.77,22.84-1.22,11.73,4.47,21.83,11.3,30.85-19.25,16.72-10.5,46.24-1.43,66.86,5.27,12,12.56,22.42,25.19,27.27,12.26,4.7,26.1,3.38,38.1,8.86C1558,869,1563.59,859.46,1557.14,856.52Z" transform="translate(0 -472.63)"/></g><g id="_Group_42" data-name="&lt;Group&gt;"><path class="cls-4" d="M1816.82,763.05c6.82-9,12.51-19.11,11.29-30.85-.77-7.37-3.21-14.38-3.7-21.81a77.56,77.56,0,0,1,2.23-24.13c1.71-6.88-8.91-9.81-10.63-2.93a89,89,0,0,0-.66,40.73c1.46,6.68,2.87,12.59.49,19.25-2.25,6.3-6.54,11.78-10.73,16.91-2.24,2.75-2.14,6.65,1.12,8.65,21.34,13.08,8.31,45-.47,61.75-5.44,10.41-13,16.07-24.45,18.44-10.85,2.24-21.69,2.8-31.92,7.46-6.44,2.94-.85,12.44,5.56,9.52,12-5.48,25.85-4.12,38.1-8.86,12.63-4.88,19.9-15.26,25.2-27.27C1827.33,809.29,1836.05,779.77,1816.82,763.05Z" transform="translate(0 -472.63)"/></g><g id="_Group_43" data-name="&lt;Group&gt;"><path class="cls-4" d="M1800.81,732.31c-27-11.24-55.41-22.53-84.87-23.43a100.23,100.23,0,0,0-37.59,4.48c-6.74,2.14-3.86,12.78,2.92,10.63a92.06,92.06,0,0,1,10.52-2.66,60.74,60.74,0,0,0-6.65,12.17,6.5,6.5,0,0,0-.49.78c-6.21,12.59-8.76,27.34-4.85,41.05,4.18,14.69,15.65,24.41,29.42,30,28.41,11.65,64.27,1.38,77.09-28a50.63,50.63,0,0,0,.56-39c3.69,1.49,7.36,3,11,4.53C1804.42,745.65,1807.28,735,1800.81,732.31Z" transform="translate(0 -472.63)"/></g><g id="_Group_44" data-name="&lt;Group&gt;"><path class="cls-4" d="M1588.54,685.71a131.06,131.06,0,0,1-39.35-6.73c-6.74-2.23-9.63,8.41-2.92,10.63a141.56,141.56,0,0,0,42.27,7.12C1595.64,696.85,1595.64,685.83,1588.54,685.71Z" transform="translate(0 -472.63)"/></g><g id="_Group_45" data-name="&lt;Group&gt;"><path class="cls-4" d="M1713.56,696.73a141.56,141.56,0,0,0,42.27-7.12c6.7-2.22,3.83-12.86-2.93-10.63a131,131,0,0,1-39.34,6.73C1706.47,685.83,1706.45,696.85,1713.56,696.73Z" transform="translate(0 -472.63)"/></g><g id="_Group_46" data-name="&lt;Group&gt;"><path class="cls-4" d="M1462,992.35c32.37,14.53,75-5.29,76.38-43.24,1.64-44.28-43.14-65.6-80.76-51-26,10.08-46.95,30.87-69.48,46.78-24.67,17.41-51,33.37-79.93,42.62-51.7,16.55-116.08,8.63-147.76-40.12-3.82-5.88-13.29-.4-9.44,5.52,44.71,68.79,136.53,61.77,200.72,27.67,20-10.65,38.8-23.63,57-37.22,21.54-16.13,44.32-38.16,72.74-39.66,25.42-1.34,47.25,19.62,46,45.43-1.37,29-35,45-60,33.81-6.36-2.86-11.92,6.56-5.51,9.43Z" transform="translate(0 -472.63)"/></g><g id="_Group_47" data-name="&lt;Group&gt;"><path class="cls-4" d="M1435.65,909.42c-27.26,16.31-56.93,33.41-89.75,32.68-37.09-.83-57.88-23.94-70.65-56.59-2.53-6.48-13.1-3.66-10.54,2.9,12.72,32.52,32.08,58.22,68.62,63.57,39.24,5.74,75.31-13.66,107.83-33.12,6-3.61.54-13.06-5.51-9.44Z" transform="translate(0 -472.63)"/></g><g id="_Group_48" data-name="&lt;Group&gt;"><path class="cls-4" d="M1446,902.52c-14.75,9.71-49.5,10.31-57.11-9.95-2.45-6.52-13-3.7-10.54,2.91,10.13,27,51.67,30.63,73.16,16.47,5.85-3.85.38-13.32-5.51-9.43Z" transform="translate(0 -472.63)"/></g><g id="_Group_49" data-name="&lt;Group&gt;"><path class="cls-4" d="M1829.45,982.92c-23.87,10.71-55.29-3-59.39-30-4.14-27.23,18.7-50.4,45.48-49.24,27.32,1.19,49.66,22.23,70.28,37.8,18.92,14.29,38.46,27.91,59.41,39.08,64.13,34.2,156.06,41.05,200.72-27.67,3.84-5.92-5.61-11.4-9.43-5.52-31.65,48.69-96.09,56.74-147.77,40.12-28.92-9.3-55.25-25.19-79.93-42.62-22.52-15.91-43.42-36.78-69.48-46.78-37.77-14.5-82.22,6.66-80.76,51,1.25,38,44.12,57.72,76.38,43.24,6.41-2.87.86-12.29-5.51-9.43Z" transform="translate(0 -472.63)"/></g><g id="_Group_50" data-name="&lt;Group&gt;"><path class="cls-4" d="M1855.76,918.86c32.53,19.46,68.58,38.86,107.83,33.12,36.54-5.34,55.91-31.06,68.62-63.57,2.56-6.55-8-9.39-10.54-2.9-12.72,32.55-33.62,55.76-70.64,56.59-32.8.73-62.52-16.39-89.75-32.68-6-3.62-11.56,5.82-5.52,9.44Z" transform="translate(0 -472.63)"/></g><g id="_Group_51" data-name="&lt;Group&gt;"><path class="cls-4" d="M1845.38,912c21.5,14.17,63,10.48,73.16-16.47,2.48-6.6-8.08-9.44-10.54-2.91-7.62,20.3-42.31,19.7-57.1,9.95-5.89-3.89-11.37,5.57-5.52,9.43Z" transform="translate(0 -472.63)"/></g><g id="_Group_52" data-name="&lt;Group&gt;"><path class="cls-4" d="M1466.67,857.36c-25-2.58-40.85-23.41-48.5-45.69-2.27-6.61-12.83-3.77-10.54,2.91,9.41,27.41,28.77,50.58,59,53.71,7,.73,6.93-10.21,0-10.93Z" transform="translate(0 -472.63)"/></g><g id="_Group_53" data-name="&lt;Group&gt;"><path class="cls-4" d="M1435.71,845.08c-9.08-2-19.58-3.88-27.18-9.51-12.62-9.34-11.79-24.42-11.08-38.33,1-19.78,2.36-39-1.4-58.56l-10,4.21c7.61,16.05,22.72,22.53,35.2,34.06,19.09,17.66,19.8,44.18,13.49,67.77-1.82,6.8,8.72,9.7,10.54,2.9,5.34-20,6.5-42.18-3.11-61.15-10.77-21.25-36.68-28-46.68-49.09-2.81-5.92-11.09-1.51-10,4.21,3.16,16.45,2.33,32.67,1.39,49.27-.65,11.45-2.43,24.42,1.49,35.57,6.74,19.19,26.33,25.21,44.42,29.18,6.85,1.51,9.78-9,2.9-10.53Z" transform="translate(0 -472.63)"/></g><g id="_Group_54" data-name="&lt;Group&gt;"><path class="cls-4" d="M1231.34,925.33a117.24,117.24,0,0,1-29-34c-3.46-6.12-12.9-.62-9.43,5.52a125,125,0,0,0,30.69,36.19c5.43,4.36,13.21-3.32,7.72-7.72Z" transform="translate(0 -472.63)"/></g><g id="_Group_55" data-name="&lt;Group&gt;"><path class="cls-4" d="M1835.09,868.29c30.26-3.13,49.63-26.3,59-53.71,2.28-6.67-8.27-9.53-10.54-2.91-7.65,22.28-23.49,43.11-48.5,45.69-6.92.72-7,11.66,0,10.93Z" transform="translate(0 -472.63)"/></g><g id="_Group_56" data-name="&lt;Group&gt;"><path class="cls-4" d="M1869,855.61c17.91-3.93,37.9-10,44.42-29.18,3.84-11.28,2.14-24,1.49-35.57-.93-16.63-1.77-32.8,1.39-49.27,1.08-5.66-7.16-10.18-10-4.21-10,21.12-36,27.77-46.68,49.09-9.55,19-8.47,41.12-3.11,61.15,1.82,6.79,12.36,3.91,10.54-2.9-6.34-23.69-5.46-50,13.49-67.77,12.45-11.68,27.55-17.91,35.2-34.06l-10-4.21c-3.75,19.58-2.4,38.8-1.4,58.56.62,12.22,1.31,24.38-7.08,34.09-7.72,8.95-20.11,11.32-31.18,13.75-6.87,1.5-4,12,2.9,10.53Z" transform="translate(0 -472.63)"/></g><g id="_Group_57" data-name="&lt;Group&gt;"><path class="cls-4" d="M1483.58,973.14a5.47,5.47,0,1,1,0-10.93,17.11,17.11,0,0,0,0-34.21,5.47,5.47,0,1,1,0-10.93,28,28,0,0,1,0,56.07Z" transform="translate(0 -472.63)"/></g><g id="_Group_58" data-name="&lt;Group&gt;"><path class="cls-4" d="M1810.76,972.23a25.76,25.76,0,0,1,0-51.52,5.47,5.47,0,1,1,0,10.93,14.83,14.83,0,1,0,0,29.66,5.47,5.47,0,1,1,0,10.93Z" transform="translate(0 -472.63)"/></g></g></g></g></g></svg>