<svg xmlns="http://www.w3.org/2000/svg" viewBox="0 0 66.7 52.76"><defs><style>.cls-1{fill:#ffbc76;}</style></defs><title>book</title><g id="Layer_2" data-name="Layer 2"><g id="Layer_1-2" data-name="Layer 1"><path class="cls-1" d="M47.87,11a1,1,0,0,0-1-1H26.08a1,1,0,0,0,0,2H46.9a1,1,0,0,0,1-1"/><path class="cls-1" d="M18.24,12h3.29a1,1,0,1,0,0-2H18.24a1,1,0,0,0,0,2"/><path class="cls-1" d="M18.24,40a1,1,0,0,0,0,2H28.46a1,1,0,0,0,0-2Z"/><path class="cls-1" d="M33.54,31a1,1,0,0,0-1-1H18.24a1,1,0,0,0,0,2H32.57a1,1,0,0,0,1-1"/><path class="cls-1" d="M40.52,21a1,1,0,0,0-1-1H18.24a1,1,0,0,0,0,2h21.3a1,1,0,0,0,1-1"/><path class="cls-1" d="M52.53,33.44a1,1,0,0,0-1,1V46.27A4.53,4.53,0,0,1,47,50.8H46.9a4.64,4.64,0,0,1-4.54-4.87,1,1,0,0,0-1-1H13.1V6.49A4.54,4.54,0,0,1,17.64,2H53.41l-.09.09-.1.11-.1.11-.1.12-.1.12-.09.13-.09.12-.09.13L52.57,3l-.09.13-.08.14-.07.13a.91.91,0,0,0-.07.14.91.91,0,0,0-.07.14s0,.1-.07.14L52.06,4,52,4.13l-.06.15a.88.88,0,0,1,0,.15.88.88,0,0,1,0,.15s0,.1,0,.16a.57.57,0,0,0,0,.14,1,1,0,0,0,0,.17.89.89,0,0,0,0,.14,1.16,1.16,0,0,0,0,.18s0,.09,0,.14l0,.19s0,.09,0,.13,0,.14,0,.21,0,.08,0,.12,0,.22,0,.33v8.68a1,1,0,1,0,2,0V7.8H63.57a1,1,0,0,0,.69-.29.93.93,0,0,0,.28-.7A6.55,6.55,0,0,0,58.05,0H17.64a6.5,6.5,0,0,0-6.49,6.49V45H1a1,1,0,0,0-.7.29A1,1,0,0,0,0,46a6.56,6.56,0,0,0,6.49,6.81H47a6.5,6.5,0,0,0,6.49-6.49V34.42a1,1,0,0,0-1-1m1-27.62s0-.06,0-.09l0-.12,0-.1,0-.11,0-.1,0-.11,0-.1a.42.42,0,0,1,0-.1l0-.1a.3.3,0,0,0,0-.1,1,1,0,0,0,0-.1.36.36,0,0,0,0-.09l0-.1,0-.08.06-.11,0,0a4.53,4.53,0,0,1,.3-.46h0l.11-.13,0,0,.11-.13,0,0,.12-.13,0,0,.12-.12,0,0,.13-.12h0a4.56,4.56,0,0,1,2.15-1h0l.2,0h0l.2,0h.43A4.53,4.53,0,0,1,62.5,5.84H53.56v0M6.49,50.8a4.53,4.53,0,0,1-4.44-3.88H40.48c0,.1,0,.2,0,.3s0,.06,0,.1,0,.13,0,.19l0,.12a.85.85,0,0,0,0,.17l0,.13s0,.1,0,.16a.56.56,0,0,0,0,.12,1,1,0,0,0,0,.16s0,.08,0,.12l.06.15,0,.12.06.15,0,.11.08.16s0,.07.05.1a1.62,1.62,0,0,0,.1.18l0,.07.15.24,0,0,.12.18.06.08.1.15.07.09.11.13.07.09.11.12.07.08.06.06Z"/><path class="cls-1" d="M66.7,18v0a1.17,1.17,0,0,0,0-.27h0a.69.69,0,0,0,0-.13h0l-.06-.1,0,0a.39.39,0,0,0-.08-.1l0,0-.09-.07h0l-.11-.07h0L66,17.1h0l-.13,0h-.16C57.57,16.84,46.9,18.81,41.51,25c-2.36,2.7-3.45,6.12-4.51,9.42-.08.27-.17.54-.26.81,0,0,0,0,0,0L35.08,41.1a1,1,0,0,0,.68,1.2.82.82,0,0,0,.26,0,1,1,0,0,0,.94-.71l1.54-5.45a31.43,31.43,0,0,1,5.42-1.84c1-.29,2.25-.61,3.7-1.06,3.14-1,9.15-5,11.92-8a65.71,65.71,0,0,1,6.81-6.51h0a.43.43,0,0,0,.1-.09h0l.09-.11v0a1.28,1.28,0,0,0,.11-.24v0a.51.51,0,0,0,0-.13h0a.38.38,0,0,0,0-.1v0M43,26.25c2.27-2.59,5.76-4.55,10.36-5.82a37.78,37.78,0,0,1,3.9-.84,75.5,75.5,0,0,0-8.53,5A78.76,78.76,0,0,0,40.22,31,15.85,15.85,0,0,1,43,26.25M58.1,24c-2.69,2.92-8.51,6.67-11.05,7.45-1.42.44-2.61.76-3.65,1s-1.8.49-2.65.76c.38-.36.83-.77,1.35-1.22a76.33,76.33,0,0,1,7.7-5.81,53.31,53.31,0,0,1,12.67-6.62c-1.42,1.31-2.82,2.72-4.37,4.4"/></g></g></svg>