<svg xmlns="http://www.w3.org/2000/svg" viewBox="0 0 101.37 95.39"><defs><style>.cls-1{fill:#ffbc76;}</style></defs><title>down-arrow</title><g id="Layer_2" data-name="Layer 2"><g id="Layer_1-2" data-name="Layer 1"><path class="cls-1" d="M50.79.38l1.48,4.55a.54.54,0,0,0,.52.37h4.78a.55.55,0,0,1,.32,1L54,9.1a.55.55,0,0,0-.19.62l1.47,4.54a.54.54,0,0,1-.84.61l-3.87-2.81a.54.54,0,0,0-.64,0l-3.87,2.81a.54.54,0,0,1-.84-.61l1.48-4.54a.57.57,0,0,0-.2-.62L42.65,6.29a.55.55,0,0,1,.32-1h4.78a.54.54,0,0,0,.52-.37L49.75.38a.54.54,0,0,1,1,0"/><path class="cls-1" d="M46.13,45.1c4-9.59-.67-20.56-8.75-26.36C26.72,11.07,13,12.12,1.16,15.92c-2,.66-1.17,3.89.89,3.23a53.68,53.68,0,0,1,17.38-2.62,18,18,0,0,0-8.92,9.89c-.77,2,2.46,2.88,3.22.89a14.19,14.19,0,0,1,15-9.08,1.67,1.67,0,0,0,.56-.05,21.32,21.32,0,0,1,13.26,12c3.21,7.35,1.69,16.22-5.51,20.61-3.48,2.12-8,2.87-11.54.63a7,7,0,0,1-.15-12c1.77-1.2.1-4.1-1.69-2.89-6.5,4.43-6.81,14.62.71,18.28C32.73,58.85,42.77,53.11,46.13,45.1Z"/><path class="cls-1" d="M100.21,15.92C88.32,12.12,74.65,11.08,64,18.74,56,24.5,51.17,35.56,55.24,45.1,58.63,53,68.64,59,77,54.78c7.48-3.73,7.27-13.81.72-18.28-1.78-1.21-3.46,1.68-1.69,2.89,3.54,2.41,4.65,7.86,1.43,11.09S68.6,53.13,65,51.15c-7.64-4.21-9.54-13.39-6.18-21A21.41,21.41,0,0,1,72.11,18.19a1.56,1.56,0,0,0,.54,0,14.19,14.19,0,0,1,15,9.08c.76,2,4,1.12,3.22-.89A18,18,0,0,0,82,16.53a53.71,53.71,0,0,1,17.37,2.62C101.37,19.81,102.25,16.58,100.21,15.92Z"/><path class="cls-1" d="M52.84,62l-.17-.08V51.71a1.68,1.68,0,0,0-3.35,0V61.94l-.16.08a16.77,16.77,0,0,0-8.39,14.21c0,7.18,5.27,12.53,8.68,18.36a1.55,1.55,0,0,0,1.55.79,1.52,1.52,0,0,0,1.55-.79c3.38-5.79,8.74-11.21,8.68-18.36A16.83,16.83,0,0,0,52.84,62Zm4.31,18.44c-1.27,3.77-3.91,7-6.15,10.33-2.24-3.33-4.88-6.56-6.15-10.33A13,13,0,0,1,49.32,66v9.5a1.68,1.68,0,0,0,3.35,0V66A13,13,0,0,1,57.15,80.46Z"/></g></g></svg>