<svg xmlns="http://www.w3.org/2000/svg" viewBox="0 0 32.6 32.6"><defs><style>.cls-1{fill:#1e1e1e;}</style></defs><title>instagram</title><g id="Layer_2" data-name="Layer 2"><g id="Layer_1-2" data-name="Layer 1"><path class="cls-1" d="M22.89,0H9.71A9.73,9.73,0,0,0,0,9.71V22.89A9.72,9.72,0,0,0,9.71,32.6H22.89a9.71,9.71,0,0,0,9.71-9.71V9.71A9.72,9.72,0,0,0,22.89,0Zm6.43,22.89a6.43,6.43,0,0,1-6.43,6.43H9.71a6.43,6.43,0,0,1-6.43-6.43V9.71A6.43,6.43,0,0,1,9.71,3.28H22.89a6.43,6.43,0,0,1,6.43,6.43V22.89Z"/><path class="cls-1" d="M16.3,7.87a8.43,8.43,0,1,0,8.43,8.43A8.44,8.44,0,0,0,16.3,7.87Zm0,13.58a5.15,5.15,0,1,1,5.15-5.15A5.15,5.15,0,0,1,16.3,21.45Z"/><circle class="cls-1" cx="24.75" cy="7.93" r="2.02"/></g></g></svg>