<?xml version="1.0" encoding="utf-8"?>
<!-- Generator: Adobe Illustrator 22.1.0, SVG Export Plug-In . SVG Version: 6.00 Build 0)  -->
<svg version="1.1" id="Layer_1" xmlns="http://www.w3.org/2000/svg" xmlns:xlink="http://www.w3.org/1999/xlink" x="0px" y="0px"
	 viewBox="0 0 183.3 124" style="enable-background:new 0 0 183.3 124;" xml:space="preserve">
<style type="text/css">
	.st0{fill:#FFBC76;}
</style>
<title>logo</title>
<path class="st0" d="M92.7,108.7c-0.1-0.1-0.2-0.1-0.3-0.1v-1.3c0-0.3-0.3-0.6-0.6-0.6c-0.3,0-0.6,0.3-0.6,0.6v1.3
	c-0.1,0-0.1,0-0.2,0.1c-2.3,1.3-3.8,3.8-3.8,6.5c0,3.3,2.4,5.7,4,8.4c0.3,0.4,0.8,0.5,1.2,0.2c0.1-0.1,0.1-0.1,0.2-0.2
	c1.6-2.6,4-5.1,4-8.4C96.5,112.5,95,110.1,92.7,108.7z M94.7,117.2c-0.7,1.7-1.7,3.3-2.8,4.7c-1.2-1.4-2.1-3-2.9-4.7
	c-0.8-2.5,0.1-5.2,2.2-6.7v5.3c0,0.3,0.3,0.6,0.6,0.6c0.3,0,0.6-0.3,0.6-0.6v-5.3C94.5,111.9,95.5,114.6,94.7,117.2L94.7,117.2z"/>
<path class="st0" d="M94.2,91.3c0.1-0.1,0.1-0.2,0.1-0.3c0-0.1-0.1-0.1-0.2-0.1h-1.7c-0.1,0-0.2-0.1-0.2-0.1l-0.5-1.6
	c0-0.1-0.1-0.2-0.2-0.1c-0.1,0-0.1,0.1-0.1,0.1l-0.5,1.6c0,0.1-0.1,0.1-0.2,0.1H89c-0.1,0-0.2,0.1-0.2,0.2c0,0.1,0,0.1,0.1,0.2
	l1.4,1c0.1,0,0.1,0.1,0.1,0.2l-0.5,1.6c0,0.1,0,0.2,0.1,0.2c0.1,0,0.1,0,0.2,0l1.4-1c0.1-0.1,0.2-0.1,0.2,0l1.4,1
	c0.1,0.1,0.2,0,0.3-0.1c0,0,0-0.1,0-0.2l-0.5-1.6c0-0.1,0-0.2,0.1-0.2L94.2,91.3z"/>
<path class="st0" d="M106.2,35.5c0.3,0,0.6-0.4,0.5-0.7c0-0.3-0.3-0.5-0.5-0.5c-0.3,0-0.6,0.4-0.5,0.7
	C105.7,35.2,105.9,35.4,106.2,35.5z"/>
<path class="st0" d="M78.7,35.8c2.8,1.5,7.3,0.6,8.6-2.5c0.6-1.6,0.5-3.5-0.3-5.1c0,0,0-0.1,0-0.1c-0.2-0.5-0.4-0.9-0.7-1.3
	c0.4,0.1,0.8,0.2,1.2,0.3c0.7,0.2,1-0.9,0.3-1.1c-1.3-0.4-2.6-0.6-4-0.5c-3.2,0.1-6.3,1.3-9.2,2.5c-0.7,0.3-0.4,1.4,0.3,1.1l1.2-0.5
	C75,31.4,76.2,34.5,78.7,35.8z"/>
<path class="st0" d="M92.8,43.8c1.1-0.5,1.9-1.6,1.8-2.8c0.2-2.9-1.9-5.4-3.6-7.5c-0.1-0.1-0.3-0.2-0.4-0.2c-0.2,0-0.3,0.1-0.4,0.2
	c-1.7,2.1-3.8,4.6-3.6,7.5c0,1.2,0.7,2.3,1.8,2.8c0.8,0.2,1.7,0.1,2.3-0.5C91.2,43.8,92,44,92.8,43.8z"/>
<path class="st0" d="M77.4,38.4c0.6,0.2,1.3,0.4,2,0.4c0.7-0.1,1.4,0,2.1,0.2c1.2,0.6,1.4,2.3,1.6,3.5c0.1,0.8,1.3,0.8,1.2,0
	c-0.2-1.5-0.4-3.2-1.7-4.2c-0.6-0.4-1.4-0.7-2.1-0.7c-0.9,0-1.8-0.1-2.7-0.4C77,37,76.7,38.1,77.4,38.4z"/>
<path class="st0" d="M75.7,37.3c0.3,0,0.6-0.3,0.5-0.7c0-0.3-0.2-0.5-0.5-0.5c-0.3,0-0.6,0.3-0.5,0.7C75.3,37,75.5,37.2,75.7,37.3z"
	/>
<path class="st0" d="M103.8,37.2c-0.8,0.3-1.7,0.4-2.6,0.4c-0.8,0-1.6,0.2-2.2,0.7c-1.3,1-1.6,2.7-1.7,4.2c-0.1,0.8,1.1,0.8,1.2,0
	c0.1-1.2,0.3-2.8,1.6-3.5c0.7-0.2,1.4-0.3,2.1-0.2c0.7,0,1.4-0.2,2-0.4C104.8,38.1,104.5,36.9,103.8,37.2z"/>
<path class="st0" d="M75.8,20.3c-0.5-0.6-1.5,0-1,0.6c0.7,0.9,1,2,0.9,3.1v0.1c-0.1,0.3-0.3,0.5-0.4,0.8c-0.1,0.3,0.1,0.7,0.4,0.8
	c0.2,0.1,0.4,0,0.6-0.2c2.1-3.7,2.3-8.2,0.5-12c-0.3-0.7-1.4-0.1-1,0.6c1.1,2.3,1.4,5,0.8,7.5C76.3,21.2,76.1,20.7,75.8,20.3z"/>
<path class="st0" d="M104.8,13.5c-1.9,3.8-1.7,8.3,0.5,12c0.2,0.2,0.6,0.2,0.8,0c0.2-0.2,0.2-0.4,0.2-0.6c-0.2-0.3-0.3-0.5-0.4-0.8
	c0,0,0,0,0-0.1c-0.1-1.1,0.2-2.2,0.9-3.1c0.5-0.6-0.6-1.2-1-0.6c-0.3,0.4-0.6,0.9-0.7,1.4c-0.6-2.5-0.3-5.2,0.8-7.5
	C106.2,13.4,105.2,12.9,104.8,13.5z"/>
<path class="st0" d="M89.6,50.5c0.2-0.8-1-1.1-1.2-0.3s-0.6,1.8-1.6,1.2c-0.6-0.3-0.9-1-0.9-1.7v-0.1c0,0,0-0.1,0-0.1l0,0
	c0,0,0-0.1,0-0.2c-0.1-0.7-1.1-0.5-1.2,0.2c0,0.2,0,0.3,0,0.5c-0.2,0.5-1,0.5-1.4,0.2c-0.5-0.4-0.8-1-0.9-1.6
	c-0.2-0.7-0.2-1.5-0.3-2.2c-0.1-0.7-0.2-1.5-0.4-2.2c-0.2-0.7-1.3-0.4-1.2,0.3c0.2,1.2,0.4,2.4,0.5,3.7c0,1,0.4,1.9,1.1,2.6
	c0.6,0.7,1.6,0.9,2.5,0.6c0.1,0,0.2-0.1,0.3-0.2c0.3,0.7,0.9,1.2,1.6,1.4c0.7,0.2,1.4,0.1,2-0.3C89.2,51.8,89.5,51.2,89.6,50.5z"/>
<path class="st0" d="M92.4,52.3c0.6,0.5,1.3,0.6,2,0.4c0.7-0.2,1.3-0.7,1.6-1.4c0.1,0.1,0.2,0.1,0.3,0.2c0.9,0.3,1.9,0.1,2.5-0.6
	c0.6-0.7,1-1.7,1.1-2.6c0.1-1.2,0.3-2.5,0.5-3.7c0.2-0.8-1-1.1-1.2-0.3c-0.2,0.7-0.3,1.4-0.4,2.2c-0.1,0.7-0.1,1.5-0.3,2.2
	c-0.1,0.6-0.4,1.2-0.9,1.6c-0.4,0.3-1.2,0.3-1.4-0.2c0-0.1,0-0.3,0-0.5c0-0.6-1.1-0.9-1.2-0.2c0,0.1,0,0.1,0,0.2l0,0v0.3
	c0,0.7-0.3,1.3-0.9,1.7c-1,0.5-1.4-0.4-1.6-1.2s-1.3-0.4-1.2,0.3C91.6,51.2,91.9,51.8,92.4,52.3z"/>
<path class="st0" d="M73.3,17.9c0.1-1.8,0.3-3.7,0.8-5.5c0.5-1.5,1.4-2.8,2.6-3.8c1.2-1.1,2.5-2.1,3.9-3c1.4-1,2.8-1.9,4.4-2.7
	c1.7-0.9,3.6-1.5,5.6-1.7c0.1,0,0.1,0,0.2,0c0.1,0,0.1,0,0.2,0c3.4,0.3,6.5,2,9.3,4c2.5,1.7,5.6,3.7,6.8,6.6
	c0.3,0.9,0.6,1.9,0.7,2.9c0.1,1.1,0.3,2.2,0.3,3.2c0.1,0.8,1.3,0.8,1.2,0c-0.1-2-0.3-4-0.8-5.9c-0.5-1.6-1.5-3-2.7-4.1
	c-1.3-1.2-2.7-2.3-4.1-3.2c-1.5-1.1-3.1-2.1-4.8-2.9c-1.8-0.9-3.8-1.6-5.9-1.8h-0.4c-3.7,0.3-7.1,2.1-10.1,4.2
	c-2.7,1.9-5.9,3.9-7.2,7.1c-0.3,0.9-0.6,1.9-0.7,2.9c-0.2,1.2-0.3,2.4-0.4,3.6C72.1,18.6,73.3,18.6,73.3,17.9z"/>
<path class="st0" d="M72.8,38.6c0.4,1.3,1.4,2.4,2.7,3c1.3,0.5,2.8,0.4,4.1,1c0.7,0.3,1.3-0.7,0.6-1c-1.1-0.4-2.2-0.7-3.4-0.8
	c-1.2-0.2-2.2-0.9-2.7-2c-1-1.8-2.4-5.3,0-6.7c0.3-0.2,0.4-0.5,0.2-0.8c0,0-0.1-0.1-0.1-0.1c-0.5-0.5-0.8-1.1-1.1-1.7
	c-0.2-0.7-0.2-1.5,0-2.2c0.3-1.5,0.3-3.1-0.1-4.5c-0.1-0.3-0.4-0.5-0.7-0.4c-0.3,0.1-0.5,0.4-0.4,0.7c0.2,0.8,0.3,1.7,0.2,2.5
	c0,0.8-0.3,1.6-0.4,2.5c0,1.2,0.4,2.4,1.3,3.3C70.9,33.2,71.8,36.4,72.8,38.6z"/>
<path class="st0" d="M108.2,22.8c-0.4,1.4-0.4,3-0.1,4.4c0.2,0.7,0.2,1.4,0,2.1c-0.3,0.7-0.7,1.3-1.2,1.8c-0.2,0.2-0.2,0.6,0,0.8
	c0,0,0.1,0.1,0.1,0.1c2.3,1.4,0.9,4.9-0.1,6.7c-0.5,1.1-1.5,1.8-2.6,2c-1.2,0.1-2.3,0.4-3.4,0.8c-0.7,0.3-0.1,1.3,0.6,1
	c1.3-0.6,2.8-0.4,4.1-1c1.3-0.6,2.3-1.7,2.7-3c1-2.2,1.9-5.4-0.2-7.2c0.8-0.9,1.3-2.1,1.2-3.3c-0.1-0.8-0.3-1.6-0.4-2.4
	c-0.1-0.9,0-1.8,0.2-2.6c-0.1-0.3-0.4-0.5-0.7-0.5C108.5,22.5,108.3,22.6,108.2,22.8z"/>
<path class="st0" d="M93.3,26c-0.7,0.2-0.4,1.4,0.3,1.1c0.4-0.1,0.7-0.2,1.1-0.3c-0.3,0.4-0.5,0.9-0.7,1.3L94,28.3
	c-0.7,1.4-0.9,2.9-0.5,4.4c0.5,1.5,1.7,2.7,3.2,3.3c3.1,1.3,7,0.2,8.3-3c0.6-1.3,0.6-2.9,0.1-4.2l1.2,0.5c0.7,0.3,1-0.9,0.3-1.1
	c-2.9-1.2-6-2.4-9.2-2.5C96,25.5,94.7,25.6,93.3,26z"/>
<path class="st0" d="M83.6,24.2c0.3,0,0.6-0.3,0.5-0.7c0-0.3-0.2-0.5-0.5-0.5c-1.4,0-2.9-0.3-4.3-0.7c-0.7-0.2-1,0.9-0.3,1.1
	C80.5,24,82.1,24.2,83.6,24.2z"/>
<path class="st0" d="M101.7,23.5c0.7-0.2,0.4-1.4-0.3-1.1c-1.4,0.5-2.8,0.7-4.3,0.7c-0.3,0-0.6,0.3-0.5,0.7c0,0.3,0.2,0.5,0.5,0.5
	C98.7,24.2,100.3,24,101.7,23.5z"/>
<polygon class="st0" points="130.9,83.8 91.7,83.7 52.6,83.8 33,83.9 13.4,84.1 33,84.3 52.6,84.4 91.7,84.5 130.9,84.4 150.4,84.3 
	170,84.1 150.4,83.9 "/>
<path class="st0" d="M58,54.9c2.2-1.2,4.2-2.5,6.2-4c2.3-1.7,4.8-4.1,7.9-4.3c2.6-0.1,4.9,1.9,5,4.5c0,0.1,0,0.3,0,0.4
	c-0.2,3.1-3.8,4.9-6.5,3.7c-0.7-0.3-1.3,0.7-0.6,1c3.5,1.6,8.1-0.6,8.3-4.7c0.2-4.8-4.7-7.1-8.7-5.5c-0.3,0.1-0.6,0.3-0.9,0.4
	c-0.1,0-0.3,0-0.4,0.1c-1.6,1-5.3,1.1-6.2-1.1c-0.3-0.7-1.4-0.4-1.1,0.3c0.8,1.6,2.4,2.7,4.2,2.6c-2.3,1.5-5,2.3-7.8,2.4
	c-4-0.1-6.3-2.6-7.6-6.1c-0.3-0.7-1.4-0.4-1.1,0.3c1.4,3.5,3.5,6.3,7.4,6.9c1.9,0.2,3.9,0,5.8-0.7c-2.6,1.9-5.4,3.4-8.5,4.5
	c-5.6,1.8-12.6,0.9-16-4.3c-0.4-0.6-1.4,0-1,0.6C41.1,59.4,51.1,58.6,58,54.9z"/>
<path class="st0" d="M118.2,45.4c-0.8,2.2-4.6,2.1-6.2,1.1c-0.1-0.1-0.2-0.1-0.3-0.1c-0.3-0.1-0.6-0.3-0.9-0.4
	c-4.1-1.6-8.9,0.7-8.7,5.5c0.1,4.1,4.8,6.2,8.3,4.7c0.7-0.3,0.1-1.3-0.6-1c-2.6,1.2-6-0.3-6.4-3.2c-0.3-2.6,1.5-5,4.1-5.3
	c0.3,0,0.6,0,0.9,0c3,0.1,5.4,2.4,7.6,4.1c2,1.6,4.2,3,6.4,4.2c6.9,3.7,16.9,4.4,21.7-3c0.4-0.6-0.6-1.2-1-0.6
	c-3.4,5.3-10.4,6.1-16,4.3c-3-1.1-5.9-2.6-8.5-4.5c1.8,0.7,3.8,0.9,5.8,0.7c4-0.6,6-3.4,7.4-6.9c0.3-0.7-0.9-1-1.1-0.3
	c-1.4,3.5-3.6,6-7.7,6.1c-2.8-0.1-5.4-0.9-7.8-2.4c1.8,0,3.5-1,4.2-2.6C119.6,45,118.5,44.7,118.2,45.4z"/>
<path class="st0" d="M61.8,34.4c-0.2,1.3-0.1,2.6,0.2,3.9c0.7,2.1,2.8,2.7,4.8,3.2c0.1,0,0.2,0,0.3,0c1,0.8,2.2,1.3,3.4,1.4
	c0.8,0.1,0.8-1.1,0-1.2c-0.9-0.1-1.7-0.4-2.4-0.9c0,0,0.1-0.1,0.1-0.2c0.7-2.2,0.6-4.5-0.3-6.6c-1.2-2.3-4-3-5-5.3
	c-0.3-0.6-1.2-0.2-1.1,0.5C61.9,30.9,62,32.7,61.8,34.4z M65.5,32.9c2,1.8,2.1,4.5,1.5,7c-0.8-0.9-1.5-2-1.9-3.2
	C65,36,63.8,36.3,64.1,37c0.4,1,0.9,2,1.5,2.9c-0.5-0.1-1-0.4-1.4-0.7c-1.4-1-1.3-2.6-1.2-4.2s0.1-2.8,0.1-4.2
	C63.8,31.6,64.7,32.2,65.5,32.9z"/>
<path class="st0" d="M44.2,49.8c0.6,0.5,1.4-0.4,0.8-0.8c-1.3-1-2.3-2.3-3.1-3.7C41.7,45,41.3,45,41,45.2c-0.2,0.2-0.3,0.4-0.2,0.7
	C41.7,47.4,42.8,48.7,44.2,49.8z"/>
<path class="st0" d="M110.3,42.8c1.2-0.1,2.4-0.6,3.4-1.4c0.1,0,0.2,0,0.3,0c1.9-0.4,4.1-1.1,4.8-3.2c0.3-1.3,0.4-2.6,0.2-3.8
	c-0.2-1.8-0.1-3.6,0.2-5.3c0.1-0.6-0.8-1.1-1.1-0.5c-1.1,2.3-3.9,3-5,5.3c-0.9,2.1-1,4.4-0.3,6.6c0,0.1,0,0.1,0.1,0.2
	c-0.7,0.5-1.5,0.8-2.4,0.9C109.6,41.7,109.6,42.9,110.3,42.8z M115.2,32.9c0.8-0.8,1.7-1.3,2.5-2c-0.1,1.4,0,2.8,0.1,4.2
	s0.1,2.6-0.8,3.7c-0.5,0.5-1.1,0.9-1.8,1.1c0.6-0.9,1.2-1.9,1.5-2.9c0.3-0.7-0.9-1-1.1-0.3c-0.4,1.2-1,2.3-1.9,3.2
	C113.1,37.4,113.3,34.8,115.2,32.9z"/>
<path class="st0" d="M137,49.8c1.3-1.1,2.5-2.4,3.3-3.9c0.4-0.7-0.6-1.3-1-0.6c-0.8,1.4-1.9,2.7-3.2,3.7
	C135.6,49.4,136.4,50.3,137,49.8z"/>
<path class="st0" d="M72.3,53c-0.3,0-0.6,0.3-0.5,0.7c0,0.3,0.2,0.5,0.5,0.5c1.7,0,3-1.4,3-3s-1.4-3-3-3c-0.3,0-0.6,0.3-0.6,0.6
	c0,0.3,0.3,0.6,0.6,0.6c1,0,1.8,0.8,1.8,1.9C74.1,52.2,73.3,53,72.3,53z"/>
<path class="st0" d="M107.7,49.7c0.3,0,0.6-0.3,0.6-0.6c0-0.3-0.2-0.6-0.6-0.6c0,0,0,0,0,0c-1.5,0.1-2.7,1.4-2.6,3
	c0.1,1.4,1.2,2.5,2.6,2.6c0.3,0,0.6-0.3,0.6-0.6c0-0.3-0.2-0.6-0.6-0.6c0,0,0,0,0,0c-0.9-0.1-1.5-0.8-1.5-1.7
	C106.3,50.3,106.9,49.7,107.7,49.7z"/>
<path class="st0" d="M90.1,105c1.4-3.4-0.2-7.3-3.1-9.3c-3.8-2.7-8.6-2.3-12.8-1c-0.7,0.2-0.4,1.4,0.3,1.1c2-0.6,4.1-1,6.2-0.9
	c-1.5,0.7-2.6,2-3.2,3.5c-0.3,0.7,0.9,1,1.1,0.3c0.8-2.2,3-3.5,5.3-3.2c0.1,0,0.1,0,0.2,0c2.1,0.6,3.8,2.2,4.7,4.2
	c1.3,2.6,0.4,5.7-2,7.3c-1.2,0.8-2.8,0.9-4.1,0.2c-1.2-0.7-1.5-2.2-0.8-3.4c0.2-0.3,0.5-0.6,0.8-0.8c0.6-0.4,0-1.4-0.6-1
	c-1.7,1.1-2.3,3.4-1.2,5.2c0.3,0.5,0.8,1,1.4,1.3C85.3,109.8,88.9,107.8,90.1,105z"/>
<path class="st0" d="M109.2,94.7c-4.2-1.3-9-1.7-12.8,1c-2.8,2-4.5,6-3.1,9.3c1.2,2.8,4.7,4.9,7.7,3.4c1.8-1,2.5-3.2,1.5-5.1
	c-0.3-0.6-0.8-1.1-1.3-1.4c-0.6-0.4-1.2,0.6-0.6,1c1.2,0.8,1.5,2.4,0.7,3.6c-0.1,0.1-0.1,0.2-0.2,0.3c-1.1,1.1-3.1,0.9-4.4,0.2
	c-2.6-1.5-3.5-4.8-2.2-7.4c0.9-2,2.6-3.6,4.7-4.2c0,0,0.1,0,0.2,0c2.3-0.3,4.5,1,5.3,3.2c0.3,0.7,1.4,0.4,1.1-0.3
	c-0.6-1.5-1.7-2.8-3.2-3.5c2.1,0,4.2,0.3,6.2,0.9C109.6,96,109.9,94.9,109.2,94.7z"/>
<path class="st0" d="M45.8,77.3h-1.6v-5.9h0.5c1.8-0.2,3.4,1.1,3.6,2.8h0.1v-5.8h-0.1c-0.2,1.8-1.8,3-3.6,2.8h-0.5v-5.9h1.4
	c3,0,4.3,1.6,4.8,3.9h0.1l-0.3-4H39.6v0.1c1.4,0,1.7,0.4,1.7,1.9v8.1c0,1.5-0.3,1.9-1.7,1.9v0.1h10.7l0.4-4.3h-0.1
	C50,75.2,49,77.3,45.8,77.3z"/>
<path class="st0" d="M6.5,77.3v0.1h10.7l0.4-4.3h-0.1c-0.6,2-1.7,4.1-4.8,4.1h-1.5v-5.9h0.5c1.8-0.2,3.4,1.1,3.6,2.8h0.1v-5.8h-0.1
	c-0.2,1.8-1.8,3-3.6,2.8h-0.5v-5.9h1.4c2.4-0.2,4.5,1.5,4.8,3.9h0.1l-0.3-4H6.5v0.1c1.4,0,1.7,0.4,1.7,1.9v8.1
	C8.3,76.9,7.9,77.3,6.5,77.3z"/>
<path class="st0" d="M62.5,71.7c2.1,0,2.1,0.8,2.8,3.6c0.2,0.8,0.4,1.5,0.8,2.2h4.3v-0.1c-1.2,0-1.5-0.5-1.9-1.7
	c-0.9-2.8-0.3-3.9-4.8-4v-0.1c2.2-0.1,5.1-0.5,5.1-3.1c0-2-1.7-3.2-5.4-3.2h-6.5v0.1c1.4,0,1.7,0.4,1.7,1.9v8.1
	c0,1.5-0.3,1.9-1.7,1.9v0.1H63v-0.1c-1.4,0-1.7-0.4-1.7-1.9v-3.7H62.5z M61.3,65.4h1.4c1.5-0.1,2.9,1,3,2.5c0,0.2,0,0.4,0,0.5
	c0.2,1.5-0.9,2.8-2.4,3c-0.1,0-0.3,0-0.4,0h-1.5L61.3,65.4z"/>
<path class="st0" d="M83.8,69.6c0.6-1,1.2-2,1.9-2.9c0.6-0.8,1.5-1.3,2.6-1.3v-0.1h-5.1v0.1c1.3,0,1.7,0.5,1.7,1.3
	c-0.1,1-0.5,2-1.1,2.9l-1.2,2.1l0,0L80,67.4c-0.8-1.2-0.5-2.1,0.8-2.1v-0.1h-6.8v0.1c1,0,1.8,0.8,2.5,2.1l3.1,5.1V75
	c0,1.7-0.5,2.2-2,2.2v0.1h6.9v-0.1c-1.4,0-2-0.5-2-2.2v-3.4L83.8,69.6z"/>
<path class="st0" d="M101.8,65.3c2.7,0,3.7,2,4.3,4.2h0.1l-0.3-4.3H94.4l-0.3,4.3h0.1c0.7-2.2,1.6-4.2,4.3-4.2h0.2v9.8
	c0,1.7-0.6,2.1-2,2.1v0.1h6.9v-0.1c-1.4,0-2-0.4-2-2.1v-9.8H101.8z"/>
<path class="st0" d="M126.1,65.3v-0.1h-6.3v0.1c1.4,0,1.7,0.4,1.7,1.9v3.9h-5.7v-3.9c0-1.5,0.3-1.9,1.7-1.9v-0.1h-6.3v0.1
	c1.4,0,1.7,0.4,1.7,1.9v8.1c0,1.5-0.3,1.9-1.7,1.9v0.1h6.3v-0.1c-1.4,0-1.7-0.4-1.7-1.9v-4h5.7v4c0,1.5-0.3,1.9-1.7,1.9v0.1h6.3
	v-0.1c-1.4,0-1.7-0.4-1.7-1.9v-8.1C124.4,65.8,124.7,65.3,126.1,65.3z"/>
<path class="st0" d="M137.4,65.3v-0.1h-6.3v0.1c1.4,0,1.7,0.4,1.7,1.9v8.1c0,1.5-0.3,1.9-1.7,1.9v0.1h6.3v-0.1
	c-1.4,0-1.7-0.4-1.7-1.9v-8.1C135.7,65.8,136,65.3,137.4,65.3z"/>
<path class="st0" d="M146.2,77.3c-2.3,0-2.5-1.2-2.5-5.3v-4.1l8.8,9.7h0.1v-6.8c0-4.2,0.3-5.3,2.5-5.3v-0.1H150v0.1
	c2.3,0,2.5,1.2,2.5,5.3v2.3l-7-7.7h-4.3v0.1c1.9,0,2.4,1,2.4,3v3.6c0,4.2-0.2,5.3-2.5,5.3v0.1L146.2,77.3L146.2,77.3z"/>
<path class="st0" d="M168,71.7v0.1c1.4,0,1.8,0.6,1.8,2V77c-0.8,0.4-1.7,0.7-2.7,0.7c-3.1,0-4.2-3-4.2-6c0-3.3,1.3-6.4,4.3-6.4
	c1.9,0,3.8,1.1,4.8,3.9h0.1l-0.4-4c-1.4,0.4-3.2,0-4.8,0c-3.9,0-7.3,2.4-7.3,6.5c0,3.4,2.4,6.2,7.4,6.2c1.8,0,3.7-0.3,5.4-0.8v-3.3
	c0-1.5,0.3-1.9,1.6-1.9v-0.1L168,71.7z"/>
<path class="st0" d="M24.1,67.9l4.3,9.6h0.1l3.1-7.5c0.4-1,0.9-2,1.4-3c0.4-1,1.4-1.7,2.5-1.7v-0.1h-5.1v0.1
	c0.9-0.1,1.6,0.5,1.7,1.4c0,0.1,0,0.2,0,0.4c-0.1,1-0.3,2-0.7,2.9L30,73.9l-2.6-6c-0.6-1.3-0.4-2.5,1.1-2.5v-0.1h-6.9v0.1
	C23,65.3,23.6,66.7,24.1,67.9z"/>
</svg>
